<?xml version="1.0" encoding="UTF-8"?>
<svg version="1.1" xmlns="http://www.w3.org/2000/svg" width="1104" height="960">
<path d="M0 0 C1.92411916 -0.00202765 3.84823756 -0.0049448 5.77235413 -0.00869751 C9.79240279 -0.01309792 13.8122503 -0.00677031 17.83227539 0.00732422 C22.91813152 0.0243101 28.00350876 0.01462773 33.08934689 -0.00339317 C37.06288571 -0.01438291 41.03631649 -0.01071454 45.00985909 -0.0030098 C46.88124209 -0.00104393 48.75263575 -0.00333573 50.62400627 -0.01044846 C60.89251572 -0.04089335 70.92134661 0.43565566 81.10766602 1.79833984 C82.50882235 1.9851554 82.50882235 1.9851554 83.93828487 2.17574501 C88.05749696 2.77721162 91.35499352 3.37234196 95.03515625 5.3984375 C95.03515625 6.0584375 95.03515625 6.7184375 95.03515625 7.3984375 C95.69515625 7.3984375 96.35515625 7.3984375 97.03515625 7.3984375 C100.07419795 13.59808258 100.07419795 13.59808258 99.91015625 16.9609375 C99.62140625 17.7653125 99.33265625 18.5696875 99.03515625 19.3984375 C98.72578125 20.3884375 98.41640625 21.3784375 98.09765625 22.3984375 C95.02704884 26.86477554 90.88700952 28.26021227 86.03515625 30.3984375 C84.03093498 31.38995002 82.02988715 32.38796798 80.03515625 33.3984375 C80.64359375 33.39730957 81.25203125 33.39618164 81.87890625 33.39501953 C99.06513667 33.4676819 115.57213555 35.39302688 132.5078125 38.13916016 C134.13147556 38.40158293 135.75517319 38.66379191 137.37890625 38.92578125 C138.17094955 39.05452133 138.96299286 39.18326141 139.77903748 39.31590271 C146.39691693 40.3634547 153.02973203 41.0899382 159.70605469 41.65098572 C168.86454832 42.48888059 175.99675583 46.12327754 183.78515625 50.8359375 C188.89297183 53.9138939 194.09813698 56.06188674 199.68603516 58.06054688 C211.86974633 62.44495675 223.54308323 68.03537283 235.046875 73.953125 C237.52803283 75.15316212 239.84641016 76.04254002 242.47265625 76.8359375 C249.63157525 79.97581426 253.37659034 86.39003316 256.69921875 93.22265625 C259.56645519 97.89239512 263.93667255 101.24443571 268.16015625 104.6484375 C269.11792969 105.42445312 270.07570313 106.20046875 271.0625 107 C272.04347656 107.79148437 273.02445313 108.58296875 274.03515625 109.3984375 C277.71421229 112.38361459 281.38225344 115.38130709 285.03515625 118.3984375 C285.74542969 118.98238281 286.45570313 119.56632812 287.1875 120.16796875 C303.63255006 134.07299128 313.98128023 153.01424651 324.77514648 171.33398438 C325.90553287 173.18605708 327.10106724 174.95463484 328.3515625 176.7265625 C330.70970985 180.46895876 330.73640409 183.12253601 330.03515625 187.3984375 C328.33239465 192.05862713 326.33264779 194.87599681 322.03515625 197.3984375 C318.04168679 198.23509748 314.10531869 198.3984375 310.03515625 198.3984375 C315.57185421 210.95125335 321.26984799 221.83352612 330.03515625 232.3984375 C332.96764116 236.30622076 334.86105552 239.1362072 335.53515625 244.0234375 C334.80623609 248.9436486 333.22026725 252.03376423 329.97265625 255.7734375 C325.62704844 258.17739075 321.88999531 258.25432765 317.03515625 257.3984375 C313.79725797 256.05055665 310.93743112 254.35702791 308.03515625 252.3984375 C307.04515625 251.7384375 306.05515625 251.0784375 305.03515625 250.3984375 C305.48613304 257.05034518 306.4771836 260.25234838 311.62109375 264.80078125 C312.93384341 265.93351249 314.24776503 267.06488617 315.5625 268.1953125 C333.22510437 283.93260928 344.02964658 301.64125077 353.11132812 323.25341797 C354.08325632 325.51012017 355.10910739 327.73661536 356.14453125 329.96484375 C370.2183473 360.78803345 367.13147613 397.98144303 356.03515625 429.3984375 C355.58414551 430.68186035 355.58414551 430.68186035 355.12402344 431.99121094 C348.06999521 451.62968412 338.08344563 469.71344143 321.58862305 482.98803711 C315.16668326 488.96255605 312.06937388 493.39325741 310.84765625 502.17578125 C310.69558716 503.12650009 310.54351807 504.07721893 310.38684082 505.05674744 C309.90244881 508.16669295 309.46312963 511.28025203 309.03515625 514.3984375 C308.88731689 515.4540387 308.73947754 516.50963989 308.5871582 517.597229 C307.48781439 525.54203774 306.50302866 533.49922041 305.53515625 541.4609375 C305.22835816 543.93957547 304.92122533 546.41817204 304.61376953 548.89672852 C302.98527482 562.10852764 301.48387331 575.32598482 300.14123535 588.5696106 C295.50298968 634.05957872 280.48784663 676.33582453 262.2618103 717.98646545 C258.15634154 727.3808946 254.15931542 736.82137964 250.15405273 746.2588501 C248.00818623 751.31322591 245.85739713 756.36550595 243.70703125 761.41796875 C240.44477049 769.08407105 240.44477049 769.08407105 237.18554688 776.75146484 C230.18017777 793.23769542 222.98333171 809.62836086 215.59472656 825.94580078 C214.09395401 829.26826877 212.60635111 832.59635464 211.12109375 835.92578125 C195.40098706 870.98000137 175.71035796 905.78313185 143.03515625 927.3984375 C142.21789062 927.96175781 141.400625 928.52507813 140.55859375 929.10546875 C112.3403202 947.48128606 73.30861732 949.60872778 40.72265625 949.5859375 C40.04428711 949.58566559 39.36591797 949.58539368 38.66699219 949.58511353 C-27.55558219 949.46704783 -88.52696392 944.66727819 -149.03491211 915.99414062 C-158.20332733 911.65352765 -167.4411608 907.49603957 -176.72619629 903.41125488 C-198.41530371 893.8651022 -219.83127133 883.84528237 -240.72265625 872.640625 C-244.2947871 870.73209122 -247.91303944 868.93815961 -251.5559082 867.16918945 C-266.22966391 860.0245554 -266.22966391 860.0245554 -271.36328125 853.21875 C-275.44218534 848.40413013 -280.72650486 845.54617691 -286.12820435 842.40478516 C-288.63671174 840.94493831 -291.12728073 839.455642 -293.61940002 837.9680481 C-294.88928385 837.21039 -296.15998709 836.45410363 -297.4315033 835.69918823 C-324.84662203 819.41622089 -324.84662203 819.41622089 -335.96484375 809.3984375 C-336.76148438 808.6971875 -337.558125 807.9959375 -338.37890625 807.2734375 C-340.93020062 805.00562028 -343.44841325 802.70485843 -345.96484375 800.3984375 C-347.03088433 799.43709435 -348.09730983 798.47617792 -349.1640625 797.515625 C-354.16098775 792.9906721 -359.02010498 788.47930402 -363.46484375 783.3984375 C-372.25889081 773.38699959 -382.45350828 764.98351387 -393.00488281 756.90380859 C-395.91546077 754.66830489 -398.80650168 752.40792416 -401.70019531 750.15063477 C-407.21381061 745.85114856 -412.73726105 741.56524626 -418.29150391 737.31835938 C-447.91708116 714.65241303 -447.91708116 714.65241303 -453.69921875 705.71875 C-455.76221987 703.0686711 -455.76221987 703.0686711 -458.86328125 703.3125 C-460.58417969 703.66441406 -460.58417969 703.66441406 -462.33984375 704.0234375 C-463.68867344 704.25836779 -465.03907196 704.48440568 -466.390625 704.703125 C-467.12361816 704.82268555 -467.85661133 704.94224609 -468.61181641 705.06542969 C-499.18673644 709.3924883 -532.75551608 705.08530006 -557.96484375 686.3984375 C-564.99518424 681.01871758 -571.46210947 675.36207469 -576.96484375 668.3984375 C-577.733125 667.45484375 -578.50140625 666.51125 -579.29296875 665.5390625 C-590.88324131 651.09344399 -598.98213783 634.82155179 -607.40869141 618.40917969 C-609.20178045 614.94002781 -611.03458008 611.49358774 -612.8762207 608.05004883 C-614.9378566 604.18266707 -616.95956243 600.29529862 -618.96484375 596.3984375 C-619.38411133 595.5842334 -619.80337891 594.7700293 -620.23535156 593.93115234 C-642.47011811 550.27182675 -663.48202459 499.5720357 -649.27734375 450.2734375 C-639.23575992 419.4495884 -616.14564738 386.42687623 -587.01928711 371.11987305 C-574.09294551 364.6144593 -561.07361974 360.42295355 -546.96484375 357.3984375 C-546.96484375 356.7384375 -546.96484375 356.0784375 -546.96484375 355.3984375 C-547.94710937 354.99109375 -548.929375 354.58375 -549.94140625 354.1640625 C-551.60253906 353.11132812 -551.60253906 353.11132812 -552.96484375 351.3984375 C-553.76348688 346.64438433 -553.52533275 341.95212696 -553.33984375 337.1484375 C-553.31277344 335.83101563 -553.28570313 334.51359375 -553.2578125 333.15625 C-553.18706797 329.90200163 -553.08838436 326.65104002 -552.96484375 323.3984375 C-553.57980713 323.88376953 -554.19477051 324.36910156 -554.82836914 324.86914062 C-557.86752206 327.04457816 -560.138079 326.93995687 -563.78125 326.8203125 C-567.31592779 326.13740516 -568.82320187 324.16997405 -570.96484375 321.3984375 C-571.50753906 320.83125 -572.05023437 320.2640625 -572.609375 319.6796875 C-574.57559289 316.37054846 -574.09934811 313.95187721 -573.77734375 310.1484375 C-573.71981934 309.44678467 -573.66229492 308.74513184 -573.60302734 308.0222168 C-573.41229836 305.81158406 -573.19292562 303.6055081 -572.96484375 301.3984375 C-572.86163818 300.35840576 -572.86163818 300.35840576 -572.75634766 299.29736328 C-571.20495287 284.1052666 -567.81969518 271.03594783 -560.96484375 257.3984375 C-560.33607065 256.11906342 -559.70846788 254.83911349 -559.08203125 253.55859375 C-557.44062534 250.21921063 -555.76592562 246.89791204 -554.07568359 243.58300781 C-553.30055941 242.05865371 -552.53043959 240.53174908 -551.76416016 239.00292969 C-546.94474425 229.40179374 -542.28615228 220.36462813 -534.96484375 212.3984375 C-533.92961925 211.24485291 -532.89446896 210.09120172 -531.859375 208.9375 C-526.68735105 203.22986921 -521.49586379 197.65008946 -515.55078125 192.73046875 C-513.90765264 191.40183051 -513.90765264 191.40183051 -512.37890625 189.72265625 C-510.96484375 188.3984375 -510.96484375 188.3984375 -508.96484375 188.3984375 C-508.63484375 187.4084375 -508.30484375 186.4184375 -507.96484375 185.3984375 C-506.38598633 184.01977539 -506.38598633 184.01977539 -504.359375 182.62109375 C-503.62267578 182.10740234 -502.88597656 181.59371094 -502.12695312 181.06445312 C-501.35158203 180.53529297 -500.57621094 180.00613281 -499.77734375 179.4609375 C-498.64329102 178.67299805 -498.64329102 178.67299805 -497.48632812 177.86914062 C-494.17982469 175.57781691 -490.85702688 173.32511763 -487.4765625 171.14453125 C-484.8868481 169.64172302 -484.8868481 169.64172302 -483.96484375 167.3984375 C-489.46512105 165.35408665 -494.25556721 164.21997264 -500.15234375 164.3984375 C-505.32975033 164.53836741 -508.4917768 164.02393332 -512.96484375 161.3984375 C-515.3497834 157.82102802 -516.13154622 154.6493505 -515.96484375 150.3984375 C-513.27198556 145.01272111 -508.32936167 143.39517916 -502.96484375 141.3984375 C-501.35609375 140.7796875 -501.35609375 140.7796875 -499.71484375 140.1484375 C-491.4828517 138.50203909 -483.21758415 139.27592112 -474.96484375 140.3984375 C-475.23039063 139.33625 -475.4959375 138.2740625 -475.76953125 137.1796875 C-477.89453125 128.6796875 -477.89453125 128.6796875 -478.42382812 126.54199219 C-478.7873091 125.10184644 -479.16383766 123.66493669 -479.55273438 122.23144531 C-481.17080963 116.17352942 -481.11205578 112.03127561 -479.21484375 106.0234375 C-477.37474018 103.63130286 -475.88908387 103.11325175 -472.96484375 102.3984375 C-467.54210076 102.59210689 -464.92386934 103.77910989 -460.96484375 107.3984375 C-459.0859375 110.0546875 -459.0859375 110.0546875 -457.40234375 112.8984375 C-455.21293862 116.57946969 -452.98668242 119.38321117 -449.96484375 122.3984375 C-449.96484375 123.0584375 -449.96484375 123.7184375 -449.96484375 124.3984375 C-449.30484375 124.3984375 -448.64484375 124.3984375 -447.96484375 124.3984375 C-447.71347656 123.6559375 -447.46210938 122.9134375 -447.203125 122.1484375 C-445.87192994 119.19209264 -444.49120238 117.616552 -442.15234375 115.3984375 C-441.15267578 114.439375 -441.15267578 114.439375 -440.1328125 113.4609375 C-439.41738281 112.7803125 -438.70195312 112.0996875 -437.96484375 111.3984375 C-437.20816406 110.61726563 -436.45148438 109.83609375 -435.671875 109.03125 C-432.43369716 105.88185337 -428.9926654 103.08899616 -425.46484375 100.2734375 C-420.24705725 96.08088347 -415.09949637 91.82824471 -410.02734375 87.4609375 C-405.22990536 83.35983126 -400.31220045 79.7452097 -394.96484375 76.3984375 C-393.67320312 75.52058594 -393.67320312 75.52058594 -392.35546875 74.625 C-385.46441926 70.01150077 -378.70365251 67.14908494 -370.80078125 64.73828125 C-366.06122535 63.25606059 -361.6947135 61.36322275 -357.21484375 59.2109375 C-321.69971934 42.311665 -283.73038026 35.63701374 -244.96484375 31.3984375 C-244.74025913 29.16547624 -244.74025913 29.16547624 -246.90234375 27.2734375 C-249.5015495 23.65030221 -250.17362923 20.82642947 -249.96484375 16.3984375 C-248.23934233 11.12043315 -245.69817114 9.11996104 -240.96484375 6.3984375 C-237.66015625 5.60546875 -237.66015625 5.60546875 -234.08984375 5.2109375 C-233.11917969 5.10096436 -233.11917969 5.10096436 -232.12890625 4.98876953 C-230.07575245 4.76716711 -228.0221858 4.57676639 -225.96484375 4.3984375 C-225.3006543 4.34059082 -224.63646484 4.28274414 -223.95214844 4.22314453 C-214.29377915 3.42655362 -204.6535542 3.2024946 -194.96484375 3.3984375 C-193.42256104 3.42526611 -193.42256104 3.42526611 -191.84912109 3.45263672 C-160.95484005 4.04884978 -128.06080057 6.50525001 -100.40234375 21.8359375 C-95.27465474 24.16670523 -91.55757362 22.95804529 -86.3515625 21.12890625 C-85.11518448 20.62258001 -83.88209216 20.10815943 -82.65234375 19.5859375 C-81.43933594 19.08449219 -80.22632813 18.58304688 -78.9765625 18.06640625 C-76.91565282 17.21316339 -74.85959861 16.35292318 -72.81225586 15.4675293 C-65.79517471 12.51878821 -58.57609014 10.43824725 -51.25268555 8.41625977 C-49.16463302 7.83933301 -47.07927596 7.25338806 -44.99414062 6.66601562 C-37.5455237 4.58574967 -37.5455237 4.58574967 -35.22239685 3.98693848 C-33.56732315 3.55549237 -31.92029104 3.09287858 -30.27870178 2.6126709 C-20.18443134 -0.09777313 -10.36770067 -0.03896143 0 0 Z M-109.96484375 135.3984375 C-110.8726005 136.40766957 -111.73986635 137.45336621 -112.58984375 138.51171875 C-113.12697998 139.17743896 -113.66411621 139.84315918 -114.2175293 140.52905273 C-114.79414307 141.24907471 -115.37075684 141.96909668 -115.96484375 142.7109375 C-116.55499268 143.44062744 -117.1451416 144.17031738 -117.75317383 144.92211914 C-120.3473925 148.13073015 -122.9308671 151.346485 -125.4765625 154.59375 C-131.18490609 161.78810763 -137.44766074 167.96007893 -144.76171875 173.52734375 C-145.48875 174.14480469 -146.21578125 174.76226562 -146.96484375 175.3984375 C-146.96484375 176.0584375 -146.96484375 176.7184375 -146.96484375 177.3984375 C-147.5578125 177.65882813 -148.15078125 177.91921875 -148.76171875 178.1875 C-151.11538021 179.48117917 -152.42148057 180.78732968 -154.21484375 182.7734375 C-163.08472057 191.84115544 -173.79976748 199.09805355 -184.91796875 205.10546875 C-188.25530396 206.93961689 -191.44015933 208.9660206 -194.63671875 211.03515625 C-195.64790771 211.68049316 -196.65909668 212.32583008 -197.70092773 212.99072266 C-199.71496483 214.28056309 -201.71770282 215.58826145 -203.70727539 216.91552734 C-209.06754484 220.31206984 -212.71978899 222.19876778 -219.09643555 221.08764648 C-222.18524841 219.94826079 -223.9487462 217.91855944 -225.96484375 215.3984375 C-226.29484375 215.0684375 -226.62484375 214.7384375 -226.96484375 214.3984375 C-227.203125 212.54296875 -227.203125 212.54296875 -227.27734375 210.2109375 C-227.33341797 209.07591797 -227.33341797 209.07591797 -227.390625 207.91796875 C-226.79453964 204.39067466 -225.04681295 202.28397375 -222.96484375 199.3984375 C-215.40189812 187.93983767 -215.40189812 187.93983767 -209.96484375 175.3984375 C-210.29484375 174.4084375 -210.62484375 173.4184375 -210.96484375 172.3984375 C-228.2596982 184.92255136 -242.47605348 197.29936901 -253.96484375 215.3984375 C-254.54492188 216.29780029 -254.54492188 216.29780029 -255.13671875 217.21533203 C-260.5471961 225.64504897 -264.62340841 233.91866169 -267.96484375 243.3984375 C-268.6869791 245.13055237 -269.41570364 246.85994134 -270.15234375 248.5859375 C-271.5066521 251.90184327 -272.32173525 254.99140246 -272.90234375 258.5234375 C-273.78689382 263.48631133 -275.59708539 267.60273194 -278.96484375 271.3984375 C-282.89730827 273.77840601 -286.48597057 274.41411898 -290.96484375 273.3984375 C-299.97376348 269.35047357 -305.88391951 264.52137321 -309.96484375 255.3984375 C-310.3 254.67527344 -310.63515625 253.95210938 -310.98046875 253.20703125 C-311.68470653 251.62249625 -312.33298095 250.01319798 -312.96484375 248.3984375 C-321.46353973 256.89713348 -322.24839207 276.7554263 -322.33984375 288.3984375 C-322.30210132 295.90633183 -321.37900829 302.78263345 -319.7109375 310.109375 C-319.02723508 313.123393 -318.48283159 316.08401549 -318.08984375 319.1484375 C-317.93902344 320.28539062 -317.93902344 320.28539062 -317.78515625 321.4453125 C-317.96484375 323.3984375 -317.96484375 323.3984375 -319.20703125 325.0390625 C-323.44478997 328.31626257 -327.08127196 329.03419938 -332.3828125 328.88671875 C-340.65614096 327.32217101 -345.60447825 318.17321946 -350.1796875 311.77734375 C-351.06333984 310.59978516 -351.06333984 310.59978516 -351.96484375 309.3984375 C-352.29484375 309.3984375 -352.62484375 309.3984375 -352.96484375 309.3984375 C-352.99393008 313.62758967 -353.01167167 317.85671602 -353.02734375 322.0859375 C-353.03572266 323.28412109 -353.04410156 324.48230469 -353.05273438 325.71679688 C-353.05595703 326.87373047 -353.05917969 328.03066406 -353.0625 329.22265625 C-353.06773682 330.28572998 -353.07297363 331.34880371 -353.07836914 332.4440918 C-352.97201219 335.2118884 -352.59379163 337.70636647 -351.96484375 340.3984375 C-346.66293691 340.44803081 -341.36116638 340.4842485 -336.05908203 340.50830078 C-334.25697476 340.51833226 -332.45488365 340.53196065 -330.65283203 340.54931641 C-328.0562744 340.5736905 -325.45993278 340.58494928 -322.86328125 340.59375 C-322.06304535 340.60407257 -321.26280945 340.61439514 -320.43832397 340.62503052 C-315.83363663 340.62594537 -312.33469071 339.9937172 -307.96484375 338.3984375 C-305.39794922 338.11132812 -305.39794922 338.11132812 -302.83203125 338.0546875 C-301.38860352 338.01202759 -301.38860352 338.01202759 -299.91601562 337.96850586 C-298.90087891 337.9453833 -297.88574219 337.92226074 -296.83984375 337.8984375 C-285.81152373 337.55359068 -274.92423431 336.64712912 -263.96484375 335.3984375 C-263.54525391 334.05265625 -263.54525391 334.05265625 -263.1171875 332.6796875 C-256.5221581 312.15239342 -247.40614787 292.39082851 -233.96484375 275.3984375 C-233.33320313 274.57988281 -232.7015625 273.76132812 -232.05078125 272.91796875 C-229.82813684 270.23331398 -227.46459958 267.82644807 -224.96484375 265.3984375 C-224.11148438 264.55925781 -223.258125 263.72007812 -222.37890625 262.85546875 C-193.93468686 235.88524952 -144.76510739 217.46417363 -105.41796875 218.15234375 C-74.59351653 219.5878662 -43.63532759 226.40033458 -19.14453125 245.9140625 C-16.38643951 248.10397077 -13.51537238 250.06151029 -10.58984375 252.0234375 C-4.76409992 256.18833331 -0.16695239 261.33692597 4.61523438 266.62133789 C7.84873343 270.16948128 10.90131742 273.26968906 14.91015625 275.9609375 C27.65853351 285.30180457 35.60234003 307.84039078 40.03515625 322.3984375 C44.13106155 321.71578662 47.78386065 320.43532985 51.66015625 318.9609375 C69.20591107 312.63056089 86.80263301 312.70571953 103.984375 320.62890625 C106.29425902 321.63265008 106.29425902 321.63265008 110.03515625 321.3984375 C110.39697998 320.57605591 110.39697998 320.57605591 110.76611328 319.73706055 C127.61382544 281.55932763 147.78689939 259.93158329 186.03515625 243.3984375 C187.2365625 242.87121094 188.43796875 242.34398437 189.67578125 241.80078125 C208.59981609 234.12057231 230.37000887 231.51568255 250.19042969 236.97485352 C254.58947748 238.17853841 258.47972561 238.58800028 263.03515625 238.3984375 C262.41712755 236.60435418 261.79049544 234.81323272 261.16015625 233.0234375 C260.81210937 232.02570313 260.4640625 231.02796875 260.10546875 230 C259.18733123 227.29401632 259.18733123 227.29401632 257.03515625 225.3984375 C254.51513369 224.81456673 252.01310036 224.31209904 249.47265625 223.8359375 C231.29070172 220.07280009 213.65536629 213.47400187 198.03515625 203.3984375 C197.17857422 202.85751465 197.17857422 202.85751465 196.3046875 202.30566406 C189.19063901 197.77595241 182.8584135 192.70438596 176.81542969 186.85205078 C174.36636911 184.18370358 174.36636911 184.18370358 171.03515625 183.3984375 C171.03515625 182.7384375 171.03515625 182.0784375 171.03515625 181.3984375 C170.37515625 181.3984375 169.71515625 181.3984375 169.03515625 181.3984375 C169.51066186 182.87878514 169.99066841 184.35768771 170.47265625 185.8359375 C170.73949219 186.65964844 171.00632812 187.48335937 171.28125 188.33203125 C171.85671119 190.36063338 171.85671119 190.36063338 173.03515625 191.3984375 C173.65348085 196.71602909 172.11797141 199.15956666 169.03515625 203.3984375 C169.03515625 204.0584375 169.03515625 204.7184375 169.03515625 205.3984375 C155.83482909 209.59088835 144.49464762 207.47070381 132.03515625 202.3984375 C131.26558594 202.099375 130.49601562 201.8003125 129.703125 201.4921875 C123.34292138 198.69421605 118.2373634 193.90652993 113.03515625 189.3984375 C111.813125 188.34462891 111.813125 188.34462891 110.56640625 187.26953125 C99.53496997 177.5453918 89.45931567 167.47959636 81.03515625 155.3984375 C78.44743846 159.28001419 78.73268941 162.52329409 78.78515625 167.0234375 C78.79337402 167.87301025 78.8015918 168.72258301 78.81005859 169.59790039 C79.33863096 200.1499514 90.03349679 231.34194359 107.203125 256.5859375 C109.70262446 260.42312217 110.34569434 263.08755019 109.734375 267.63671875 C108.88742509 271.15703435 108.01370359 273.58881833 105.1796875 275.93359375 C99.0781627 279.11934564 94.49922854 278.15593945 88.03515625 276.3984375 C67.84465635 269.76377999 48.8441804 260.59966497 34.42724609 244.84082031 C32.36043836 242.69934362 30.07600879 240.90168605 27.72265625 239.0859375 C18.28676069 231.7587067 11.22993953 222.83951286 4.03515625 213.3984375 C3.5340332 212.74746094 3.03291016 212.09648437 2.51660156 211.42578125 C-3.30889713 203.85596604 -8.87704189 196.22081675 -13.95141602 188.125 C-15.85192952 185.09743272 -17.81128995 182.20266643 -20.02734375 179.3984375 C-22.67119783 175.99711559 -24.75210187 172.34307029 -26.83984375 168.5859375 C-30.40952361 162.16742839 -34.30096744 156.09743847 -38.96484375 150.3984375 C-39.29484375 150.3984375 -39.62484375 150.3984375 -39.96484375 150.3984375 C-40.28619153 167.14234797 -37.39172799 183.70678903 -30.3203125 198.94140625 C-28.9634901 202.4018899 -28.64120596 204.66021729 -28.77734375 208.3359375 C-28.80441406 209.29371094 -28.83148437 210.25148438 -28.859375 211.23828125 C-28.91158203 212.30755859 -28.91158203 212.30755859 -28.96484375 213.3984375 C-29.72796875 213.6871875 -30.49109375 213.9759375 -31.27734375 214.2734375 C-34.11513683 215.36112763 -34.11513683 215.36112763 -36.96484375 217.3984375 C-44.83884915 218.22724415 -51.63091937 213.83710306 -57.62774658 209.07904053 C-61.63552853 205.62393194 -65.34164788 201.87827896 -69.02734375 198.0859375 C-69.59478302 197.51018982 -70.16222229 196.93444214 -70.74685669 196.34124756 C-79.83093466 187.10127808 -87.59763962 177.73132191 -93.96484375 166.3984375 C-94.96613229 164.67837753 -95.96743495 162.95832578 -96.96875 161.23828125 C-101.73910942 152.90935042 -106.30646599 144.67085914 -108.96484375 135.3984375 C-109.29484375 135.3984375 -109.62484375 135.3984375 -109.96484375 135.3984375 Z M-124.08984375 262.1484375 C-125.14429688 262.28765625 -126.19875 262.426875 -127.28515625 262.5703125 C-132.10529625 263.65509985 -136.43127001 265.45850061 -140.96484375 267.3984375 C-142.00511719 267.83978027 -143.04539062 268.28112305 -144.1171875 268.73583984 C-147.55439969 270.20799863 -150.97906677 271.70668346 -154.40234375 273.2109375 C-155.55283203 273.70658203 -156.70332031 274.20222656 -157.88867188 274.71289062 C-175.20965086 282.33804681 -190.82616412 293.16505065 -200.96484375 309.3984375 C-201.43164551 310.13690918 -201.89844727 310.87538086 -202.37939453 311.63623047 C-222.46842186 343.57344 -227.03452545 376.26997735 -219.15625 413.1875 C-212.44631918 440.08290737 -199.11110899 456.48297222 -176.96972656 472.90625 C-175.21455691 474.21258182 -173.47369414 475.53481676 -171.73828125 476.8671875 C-163.53814052 483.05771628 -157.18035689 486.44518061 -146.87890625 486.984375 C-143.56729577 487.45492555 -141.120853 488.55899782 -138.08984375 489.9609375 C-117.13148525 498.50320684 -91.23057961 489.42788087 -71.46240234 481.45410156 C-55.4729996 474.69572644 -41.10413458 464.63408304 -27.96484375 453.3984375 C-27.19785156 452.81191406 -26.43085937 452.22539062 -25.640625 451.62109375 C-8.01046701 437.56004279 3.14347695 409.05858272 5.7578125 387.22265625 C6.33437103 379.27264491 6.34316591 371.36081486 6.03515625 363.3984375 C6.01001953 362.71072266 5.98488281 362.02300781 5.95898438 361.31445312 C5.2226446 346.45241146 -2.09414656 333.68593551 -9.96484375 321.3984375 C-10.44953125 320.59019531 -10.93421875 319.78195312 -11.43359375 318.94921875 C-24.0063981 298.33351749 -43.41130446 273.73426492 -68.11865234 267.61767578 C-77.17725291 265.80595567 -86.22359268 264.49156666 -95.40307617 263.46313477 C-97.68946373 263.20677545 -99.97461836 262.9409989 -102.25976562 262.67382812 C-109.69840968 261.81671645 -116.6292633 261.10575397 -124.08984375 262.1484375 Z M164.84765625 303.9609375 C150.28200592 323.64262204 137.7613704 351.66176815 137.03515625 376.3984375 C136.97328125 377.07003906 136.91140625 377.74164063 136.84765625 378.43359375 C135.78532262 396.19448418 145.13754261 410.87018132 156.328125 423.625 C158.79051151 426.5713435 158.79051151 426.5713435 162.03515625 427.3984375 C162.03515625 428.0584375 162.03515625 428.7184375 162.03515625 429.3984375 C168.94381597 435.90162284 177.15553359 441.14208074 185.03515625 446.3984375 C185.82148437 446.93339844 186.6078125 447.46835937 187.41796875 448.01953125 C203.75241994 458.52024988 224.70887494 465.65554227 244.03515625 467.3984375 C245.03385742 467.51421143 245.03385742 467.51421143 246.05273438 467.63232422 C258.94914265 469.0149174 267.21927014 465.78497548 277.94824219 458.7578125 C279.89111752 457.49226151 281.85895519 456.29566332 283.85546875 455.1171875 C305.11510942 442.37750018 314.45918262 425.58869352 320.97265625 402.0234375 C326.55418035 374.46249551 321.11858866 337.41371498 306.33837891 313.30126953 C292.90753612 293.6909307 274.16792318 282.94007987 251.99487305 276.02758789 C250.30327596 275.48451505 248.63322092 274.87516737 246.96875 274.25390625 C220.50734624 266.53746494 181.69522478 284.07747048 164.84765625 303.9609375 Z M87.84765625 350.8984375 C87.09806641 351.04152344 86.34847656 351.18460937 85.57617188 351.33203125 C83.72869719 351.68505189 81.88186304 352.04142169 80.03515625 352.3984375 C84.80326345 358.92419991 89.88458015 365.17196328 95.03515625 371.3984375 C97.01378352 367.99819147 97.59582288 364.83513089 98.16015625 360.9609375 C98.32773437 359.84847656 98.4953125 358.73601562 98.66796875 357.58984375 C98.98693569 354.817546 99.10804986 352.1840148 99.03515625 349.3984375 C95.20373657 349.3984375 91.59298243 350.17226945 87.84765625 350.8984375 Z M51.03515625 383.3984375 C50.59332774 386.23115365 50.15590642 389.06440301 49.72265625 391.8984375 C49.51854126 393.2299585 49.51854126 393.2299585 49.31030273 394.58837891 C48.40541933 400.60807013 47.64396403 406.63169064 46.95556641 412.6796875 C45.12196895 428.5291738 41.45301237 441.49552823 33.97070312 455.60205078 C32.31743201 458.77657292 30.83160049 462.03396605 29.3359375 465.28515625 C27.60271316 468.10099519 25.42732545 470.12084244 23.03515625 472.3984375 C15.52111023 479.74148829 15.52111023 479.74148829 8.47265625 487.5234375 C-4.44831385 502.36752873 -21.87118846 511.57462774 -39.69873047 519.40234375 C-42.17114852 520.48912092 -44.63180402 521.60065712 -47.09375 522.7109375 C-66.57277963 531.39202227 -85.22678627 537.05177357 -106.7421875 536.37109375 C-109.43247428 536.39392043 -111.93637016 536.5987074 -114.6015625 536.90625 C-140.90847076 539.69157166 -172.13582705 535.11006888 -193.27734375 518.1484375 C-194.94375824 516.75568349 -196.58702407 515.34129026 -198.21972656 513.90917969 C-200.78271942 511.69040523 -203.42698073 509.57653099 -206.06811523 507.4519043 C-208.12370177 505.7965034 -210.16852122 504.12864209 -212.2109375 502.45703125 C-214.46077536 500.61810717 -216.72133307 498.79967182 -219 496.99609375 C-235.41057738 483.93846887 -248.51839291 469.51092872 -254.27734375 448.8359375 C-255.71879487 443.70801657 -257.80450338 438.90857835 -259.90234375 434.0234375 C-264.48703766 423.30293133 -268.23203925 412.98086755 -269.96484375 401.3984375 C-271.11597656 401.45902344 -272.26710938 401.51960938 -273.453125 401.58203125 C-274.21270508 401.62191162 -274.97228516 401.66179199 -275.75488281 401.70288086 C-277.45870035 401.79275509 -279.16247568 401.88343279 -280.86621094 401.97485352 C-285.22007643 402.20738407 -289.57366188 402.42904482 -293.9296875 402.6171875 C-301.21736749 402.9441087 -308.36596634 403.37659227 -315.58984375 404.4609375 C-323.73298643 405.66238478 -331.75804255 405.5792483 -339.96484375 405.3984375 C-340.17665904 412.26614098 -338.39009227 415.91725212 -334.57421875 421.39453125 C-329.1067205 429.69649569 -326.68211627 438.93432478 -323.96484375 448.3984375 C-323.46597656 450.09419922 -323.46597656 450.09419922 -322.95703125 451.82421875 C-320.70833673 459.71648157 -319.78417462 467.27072392 -319.77734375 475.4609375 C-319.76509766 476.23759766 -319.75285156 477.01425781 -319.74023438 477.81445312 C-319.72838802 482.47796969 -320.40230762 485.9673649 -321.96484375 490.3984375 C-322.51582458 493.92285306 -322.78783372 497.4798977 -323.08789062 501.03320312 C-323.58927593 506.06060715 -324.84814076 509.81410445 -326.96484375 514.3984375 C-327.27923208 515.72217783 -327.56024314 517.05530839 -327.77734375 518.3984375 C-329.24204678 524.37258055 -332.55453402 527.76145053 -337.5703125 531.16796875 C-344.96125159 535.3369661 -351.5610738 537.08107153 -359.96484375 535.3984375 C-375.90906265 530.22830761 -385.8232724 518.6968416 -394.96875 505.26953125 C-396.82183697 502.42348511 -396.82183697 502.42348511 -398.96484375 500.3984375 C-401.48164931 500.2190857 -403.94599202 500.12840618 -406.46484375 500.0859375 C-412.66194673 499.84042574 -417.24333249 498.9907316 -422.6640625 495.765625 C-424.95153196 494.32964262 -424.95153196 494.32964262 -427.546875 493.34375 C-435.2283571 490.18823861 -438.15047067 485.58384643 -441.96484375 478.3984375 C-442.70397389 477.04011788 -443.44358464 475.68205971 -444.18359375 474.32421875 C-448.16682134 466.94441466 -451.97522631 459.48772341 -455.578125 451.9140625 C-456.90428059 449.31285004 -456.90428059 449.31285004 -458.9609375 447.0390625 C-461.35871368 443.87941981 -462.45584158 440.60237895 -463.71484375 436.8984375 C-465.71587524 431.53218077 -467.36774367 427.90243908 -472.68359375 425.3671875 C-473.43640625 425.0475 -474.18921875 424.7278125 -474.96484375 424.3984375 C-476.86885861 423.39294651 -478.76438832 422.3712679 -480.65234375 421.3359375 C-482.05806641 420.57023437 -482.05806641 420.57023437 -483.4921875 419.7890625 C-487.16370457 417.72419666 -490.05220019 415.87307999 -492.30053711 412.24023438 C-495.49815515 407.24309741 -495.49815515 407.24309741 -500.62255859 404.63208008 C-503.7171954 404.43856839 -506.68331959 404.51360964 -509.77734375 404.7109375 C-510.80666016 404.73478516 -511.83597656 404.75863281 -512.89648438 404.78320312 C-518.63504409 404.97557736 -524.09014247 405.6709263 -529.69311523 406.90551758 C-531.73967709 407.34958081 -533.80933719 407.68376333 -535.87890625 408.00390625 C-558.01806174 411.47625801 -573.32485776 422.02967254 -586.58984375 440.1484375 C-599.19807359 458.98626554 -605.35452683 478.11038496 -601.2578125 500.91015625 C-600.16853526 505.85384185 -598.61523475 510.61696843 -596.96484375 515.3984375 C-596.56716797 516.55102051 -596.16949219 517.70360352 -595.75976562 518.89111328 C-585.63081738 547.90512789 -572.43166632 575.30297141 -557.96484375 602.3984375 C-557.48885742 603.29369141 -557.01287109 604.18894531 -556.52246094 605.11132812 C-546.40872493 624.047997 -535.71558516 643.31109133 -514.77734375 651.57421875 C-506.62922826 653.96206926 -498.61631409 654.80021704 -490.15234375 655.0859375 C-488.5278833 655.14563721 -488.5278833 655.14563721 -486.87060547 655.20654297 C-474.47984598 655.58520487 -462.05599366 655.30942294 -449.77734375 653.5234375 C-437.94741446 652.3870191 -426.65598492 664.16088554 -418.15234375 671.0859375 C-415.75547863 673.06506327 -413.36841744 675.05136413 -411.01171875 677.078125 C-408.36946956 679.62570203 -408.36946956 679.62570203 -404.96484375 680.3984375 C-404.96484375 681.0584375 -404.96484375 681.7184375 -404.96484375 682.3984375 C-403.04375141 684.06626686 -401.11374072 685.61306738 -399.08984375 687.1484375 C-398.46851563 687.62796875 -397.8471875 688.1075 -397.20703125 688.6015625 C-395.84981444 689.64886366 -394.49067073 690.69367121 -393.12988281 691.73632812 C-389.39350334 694.60476198 -385.68118203 697.50411899 -381.96484375 700.3984375 C-380.42584328 701.59513186 -378.88678136 702.7917472 -377.34765625 703.98828125 C-371.79671839 708.30634689 -366.24737864 712.62569177 -360.73632812 716.99462891 C-359.51516516 717.9623366 -358.29241114 718.92803878 -357.06835938 719.89208984 C-349.11156212 726.17241763 -341.43060544 732.6575643 -334.02734375 739.5859375 C-333.33463379 740.23401367 -332.64192383 740.88208984 -331.92822266 741.54980469 C-327.09837785 746.13136929 -327.09837785 746.13136929 -325.96484375 748.3984375 C-325.30484375 748.3984375 -324.64484375 748.3984375 -323.96484375 748.3984375 C-323.578125 749.27242187 -323.578125 749.27242187 -323.18359375 750.1640625 C-321.86650358 752.5787278 -320.41395991 754.21583927 -318.46484375 756.1484375 C-317.85640625 756.76203125 -317.24796875 757.375625 -316.62109375 758.0078125 C-315.07000098 759.61277838 -315.07000098 759.61277838 -312.96484375 759.3984375 C-312.96484375 760.0584375 -312.96484375 760.7184375 -312.96484375 761.3984375 C-310.5358941 763.98148969 -307.70078834 766.15000378 -304.96484375 768.3984375 C-303.72154297 769.44837891 -303.72154297 769.44837891 -302.453125 770.51953125 C-292.09271675 778.90114393 -280.58978951 785.54984632 -269.20947266 792.43066406 C-264.50415894 795.28430053 -259.8272204 798.18280355 -255.15234375 801.0859375 C-253.44800197 802.14206475 -251.74357541 803.1980552 -250.0390625 804.25390625 C-248.78681885 805.03000244 -248.78681885 805.03000244 -247.50927734 805.82177734 C-244.91805787 807.42742841 -242.32631467 809.03223054 -239.734375 810.63671875 C-238.86482178 811.17514404 -237.99526855 811.71356934 -237.09936523 812.26831055 C-235.35081777 813.35023543 -233.60163667 814.431137 -231.85180664 815.51098633 C-227.38619785 818.26877612 -222.93477213 821.0460516 -218.50390625 823.859375 C-204.82861971 832.50970887 -191.35992253 839.14746755 -176.23803711 844.84741211 C-171.46416823 846.68994894 -167.44928814 848.80032664 -163.30078125 851.8203125 C-152.94515406 858.81642184 -140.65429677 863.36674402 -129.25146484 868.32202148 C-123.83076421 870.68061253 -118.44837812 873.08294251 -113.12841797 875.66088867 C-68.21769385 897.41704185 -17.5477558 897.52942068 31.39634705 897.70215225 C33.3782253 897.7107982 35.36007537 897.72527024 37.34191895 897.73983765 C67.38107067 897.93110475 101.33552236 897.50592393 125.03515625 876.3984375 C125.67453125 875.851875 126.31390625 875.3053125 126.97265625 874.7421875 C163.50301556 841.15782491 180.79874546 778.09092867 199.52542114 733.48878479 C202.95754063 725.31528592 206.40532817 717.14874612 209.88671875 708.99609375 C210.25374405 708.13352966 210.62076935 707.27096558 210.99891663 706.38226318 C213.76685932 699.9166658 216.78574164 693.63731354 220.03515625 687.3984375 C221.02167574 685.40462968 222.00243655 683.40813631 222.98046875 681.41015625 C223.91253757 679.63232128 224.94562441 677.90825009 225.9921875 676.1953125 C228.23953208 672.28321058 229.43763948 668.3002595 230.59765625 663.9609375 C231.75963889 659.72334405 232.93286122 655.55360467 234.53125 651.45703125 C236.2375982 647.02379166 237.40855678 642.50852402 238.53515625 637.8984375 C238.74873779 637.03202637 238.96231934 636.16561523 239.18237305 635.27294922 C242.93559693 620.50166033 242.93559693 620.50166033 244.03515625 605.3984375 C244.69515625 605.3984375 245.35515625 605.3984375 246.03515625 605.3984375 C248.32421596 591.90685828 249.83443784 578.36561676 251.22290039 564.7585144 C252.59020666 551.3641183 254.12354862 537.99902701 255.81616211 524.6418457 C255.97608643 523.36398193 256.13601074 522.08611816 256.30078125 520.76953125 C256.51395996 519.0978186 256.51395996 519.0978186 256.73144531 517.39233398 C257.00461865 514.69946851 257.09419741 512.10208308 257.03515625 509.3984375 C256.14546143 509.30868652 255.2557666 509.21893555 254.33911133 509.12646484 C236.7702891 507.3062256 219.77125453 505.36175314 203.03515625 499.3984375 C201.85977295 498.98223145 201.85977295 498.98223145 200.66064453 498.55761719 C190.17407208 494.77925569 180.05824716 490.26214975 170.03515625 485.3984375 C171.42134759 489.09978611 173.12228693 492.5843747 174.90039062 496.11083984 C188.77988678 524.07926989 199.11229378 553.79279418 208.84765625 583.3984375 C209.23187744 584.55849304 209.61609863 585.71854858 210.01196289 586.91375732 C225.7141285 634.51443141 225.7141285 634.51443141 216.41015625 654.3359375 C213.28089051 660.31344268 209.51026217 665.36821348 205.03515625 670.3984375 C204.4421875 671.08550781 203.84921875 671.77257812 203.23828125 672.48046875 C190.47072805 686.31198471 171.28624639 694.71505027 152.63671875 695.68359375 C126.12909369 696.48179453 102.59482633 684.14615871 79.03515625 673.3984375 C78.09978027 672.97739746 77.1644043 672.55635742 76.20068359 672.12255859 C44.32975795 657.76847758 44.32975795 657.76847758 38.66015625 645.3984375 C37.30497564 638.89357056 37.70312394 633.182564 41.03515625 627.3984375 C45.60642769 622.16918002 50.38608996 619.81948361 57.28515625 619.0234375 C64.5441369 619.74933556 70.4435993 623.01455746 76.6875 626.59667969 C115.40358876 649.70811424 115.40358876 649.70811424 157.78515625 653.8359375 C166.93849572 650.63554554 175.59086514 644.28701972 180.03515625 635.3984375 C179.9144141 629.05540058 178.63922566 623.09956459 176.72265625 617.0859375 C176.33460815 615.84191162 176.33460815 615.84191162 175.9387207 614.57275391 C175.33106967 612.63636582 174.71829023 610.70158276 174.1015625 608.76806641 C173.34003423 606.3617905 172.5894348 603.95400945 171.8515625 601.54052734 C166.11761616 582.7985214 159.71730261 564.43919729 152.34765625 546.2734375 C152.00020355 545.4137738 151.65275085 544.55411011 151.29476929 543.668396 C147.53171999 534.39532232 143.57756878 525.23182581 139.30859375 516.1796875 C138.77187798 515.04054398 138.77187798 515.04054398 138.22431946 513.87838745 C131.64940727 500.13776917 123.25717061 487.55053552 114.7578125 474.9453125 C110.87245765 469.17749036 107.07399361 463.35496073 103.28515625 457.5234375 C98.90338669 450.78579437 94.50237742 444.06412573 90.02246094 437.39135742 C86.94209847 432.79026996 83.9186655 428.15336458 80.90124512 423.51078796 C67.86440805 402.38161058 67.86440805 402.38161058 52.03515625 383.3984375 C51.70515625 383.3984375 51.37515625 383.3984375 51.03515625 383.3984375 Z " fill="#000000" transform="translate(671.96484375,-0.3984375)"/>
<path d="M0 0 C5.74907687 4.82048488 9.25943372 10.65169499 10.03271484 18.13598633 C10.05223419 19.47333198 10.05497957 20.81100334 10.04296875 22.1484375 C10.04583893 22.86948166 10.04870911 23.59052582 10.05166626 24.3334198 C10.05369553 25.85029898 10.04824572 27.36720501 10.03564453 28.8840332 C10.01964404 31.17525471 10.03549397 33.46469359 10.0546875 35.75585938 C10.0718266 46.71967011 9.57784281 56.32826223 1.6640625 64.55859375 C-6.63743622 72.04118254 -14.80173483 74.77767564 -25.85546875 74.69140625 C-26.60449463 74.6864917 -27.35352051 74.68157715 -28.12524414 74.67651367 C-33.55586159 74.56079185 -37.4560795 73.87157798 -42.35546875 71.37890625 C-43.17402344 71.00378906 -43.99257813 70.62867188 -44.8359375 70.2421875 C-56.20270653 64.91978605 -60.79219993 58.96579618 -65.17578125 47.171875 C-68.29649641 36.38123313 -66.02693871 25.7562662 -61.10546875 15.8671875 C-55.24431243 6.32615747 -45.03802145 -3.10626854 -33.98046875 -5.93359375 C-22.56621191 -7.95933217 -9.68499946 -6.8304733 0 0 Z " fill="#000000" transform="translate(920.35546875,335.62109375)"/>
<path d="M0 0 C0.82113281 -0.02900391 1.64226563 -0.05800781 2.48828125 -0.08789062 C9.46702401 -0.15977942 14.32526185 1.69620376 19.8515625 5.91796875 C31.34797557 17.85655155 38.58577023 34.24482189 39.125 50.9375 C38.81391301 60.35126293 35.53822573 70.06607086 29.1171875 77.1015625 C18.89959353 86.40278033 5.09101583 86.96568717 -8.07421875 86.6171875 C-13.20190901 86.34283396 -16.97334463 85.17705218 -21.25 82.3125 C-22.13945313 81.74144531 -23.02890625 81.17039062 -23.9453125 80.58203125 C-33.08363142 74.34456834 -40.95231143 67.14287763 -44.25 56.3125 C-44.7942913 52.10864397 -44.81059153 47.98383317 -44.75 43.75 C-44.76546875 42.66525391 -44.7809375 41.58050781 -44.796875 40.46289062 C-44.74680637 30.15501137 -41.90839472 24.50826931 -34.76660156 17.22290039 C-34.08049805 16.55121826 -33.39439453 15.87953613 -32.6875 15.1875 C-31.97948242 14.48681396 -31.27146484 13.78612793 -30.54199219 13.06420898 C-21.24638473 4.11081635 -12.86986628 0.14872727 0 0 Z " fill="#000000" transform="translate(549.25,330.6875)"/>
<path d="M0 0 C6.57858313 3.94993152 11.32933193 9.04034733 13.625 16.4375 C15.3103269 23.48163977 13.97060885 28.71419542 11.625 35.4375 C11.28349467 36.76876368 10.94887156 38.10183683 10.625 39.4375 C49.46857731 59.79068622 92.03697581 72.34013823 135.625 77.4375 C136.38522461 77.52837891 137.14544922 77.61925781 137.92871094 77.71289062 C147.06374292 78.77059112 156.19842929 79.43941265 165.3828125 79.86328125 C166.95109328 79.93931422 168.51937126 80.01540516 170.08764648 80.09155273 C173.18047438 80.24082379 176.27302768 80.36561465 179.36743164 80.47680664 C190.1286612 80.93576003 199.83261384 82.28267727 207.625 90.4375 C212.51765868 97.13831515 214.45176567 103.76209813 213.25 112.01171875 C211.45986498 119.31770732 207.74940854 124.69085121 201.46826172 128.8737793 C194.77389926 132.46982675 189.34115852 133.15524986 181.8125 132.9375 C180.66160889 132.91905029 179.51071777 132.90060059 178.32495117 132.8815918 C120.75801719 131.50562571 62.37020642 120.9614945 9.625 97.4375 C8.83270996 97.086875 8.04041992 96.73625 7.22412109 96.375 C0.56160007 93.40550205 -5.9534937 90.29135053 -12.27734375 86.6484375 C-13.50638428 85.94267578 -13.50638428 85.94267578 -14.76025391 85.22265625 C-16.34621701 84.30125986 -17.92327945 83.36432214 -19.48974609 82.41015625 C-20.2008252 81.99378906 -20.9119043 81.57742188 -21.64453125 81.1484375 C-22.26948486 80.76993652 -22.89443848 80.39143555 -23.53833008 80.00146484 C-25.43611435 79.21149815 -25.43611435 79.21149815 -27.48095703 80.25219727 C-28.10599121 80.64334717 -28.73102539 81.03449707 -29.375 81.4375 C-30.04660156 81.85128906 -30.71820312 82.26507812 -31.41015625 82.69140625 C-32.76474374 83.56575463 -34.11890884 84.44075774 -35.47265625 85.31640625 C-40.93234373 88.53392228 -47.26136808 88.03004129 -53.375 87.4375 C-61.32663798 85.18910581 -66.13210529 80.36467504 -70.375 73.4375 C-73.63810521 66.76941544 -73.2170981 59.26707659 -71 52.3125 C-65.54144809 38.79972114 -56.68102787 27.5650212 -46.375 17.4375 C-45.62605469 16.68984375 -44.87710938 15.9421875 -44.10546875 15.171875 C-39.80223587 11.11613789 -35.12475311 7.78856808 -30.1875 4.5625 C-29.60500488 4.18061523 -29.02250977 3.79873047 -28.42236328 3.40527344 C-20.09031331 -1.86481339 -9.36035686 -4.25969365 0 0 Z " fill="#000000" transform="translate(621.375,655.5625)"/>
<path d="" transform="translate(0,0)"/>
</svg>
