<?xml version="1.0" encoding="utf-8"?>
<!-- Generator: Adobe Illustrator 22.0.1, SVG Export Plug-In . SVG Version: 6.00 Build 0)  -->
<svg version="1.1" id="Layer_3" xmlns="http://www.w3.org/2000/svg" xmlns:xlink="http://www.w3.org/1999/xlink" x="0px" y="0px"
	 viewBox="0 0 64 64" style="enable-background:new 0 0 64 64;" xml:space="preserve">
<style type="text/css">
	.st0{fill:#FAF5F5;}
	.st1{fill:#63312D;}
	.st2{fill:#F9A287;}
	.st3{fill:#FCB7A4;}
	.st4{fill:#DB785A;}
	.st5{fill:#E0E0E0;}
	.st6{fill:#84DBFF;}
	.st7{fill:#EFC36A;}
	.st8{fill:#F9DD9D;}
	.st9{fill:#EEC26A;}
	.st10{fill:#A9EBFF;}
	.st11{fill:#52BADB;}
	.st12{fill:#FFFFFF;}
	.st13{fill:#F0EEEE;}
	.st14{fill:#BDBDBD;}
	.st15{fill:#E3DFDF;}
	.st16{fill:#FFE8BB;}
	.st17{fill:#FFF2D2;}
	.st18{fill:#D8C18F;}
	.st19{fill:#EAD194;}
	.st20{fill:#BFA064;}
	.st21{fill:#CCCCCC;}
	.st22{fill:#C5F1FF;}
	.st23{fill:#D3A553;}
	.st24{fill:#67C7E5;}
</style>
<g>
	<polygon class="st8" points="54.675,45.492 32,58.04 9.326,45.492 32,32.944 	"/>
	<polygon class="st16" points="12.607,45.492 33.641,33.852 32,32.944 9.326,45.492 32,58.04 33.641,57.132 	"/>
	<path class="st1" d="M32,58.54c-0.083,0-0.167-0.021-0.242-0.063L9.083,45.93c-0.159-0.088-0.258-0.256-0.258-0.438
		s0.099-0.35,0.258-0.438l22.675-12.548c0.15-0.083,0.334-0.083,0.484,0l22.674,12.548c0.159,0.088,0.258,0.256,0.258,0.438
		s-0.099,0.35-0.258,0.438L32.242,58.478C32.167,58.519,32.084,58.54,32,58.54z M10.358,45.492L32,57.469l21.642-11.977L32,33.516
		L10.358,45.492z"/>
	<polygon class="st7" points="32,58.04 9.326,45.492 9.326,48.342 32,60.89 54.675,48.342 54.675,45.492 	"/>
	<path class="st1" d="M32,61.39c-0.083,0-0.167-0.021-0.242-0.063L9.083,48.779c-0.159-0.088-0.258-0.256-0.258-0.438v-2.85
		c0-0.177,0.094-0.341,0.246-0.431c0.153-0.09,0.341-0.091,0.496-0.007L32,57.469l22.432-12.415
		c0.155-0.085,0.344-0.084,0.496,0.007c0.152,0.09,0.246,0.253,0.246,0.431v2.85c0,0.182-0.099,0.35-0.258,0.438L32.242,61.327
		C32.167,61.369,32.084,61.39,32,61.39z M9.825,48.047L32,60.318l22.174-12.271V46.34L32.242,58.478
		c-0.15,0.083-0.334,0.083-0.484,0L9.825,46.34V48.047z"/>
	<polygon class="st6" points="54.675,35.548 32,48.096 9.326,35.548 32,22.999 	"/>
	<polygon class="st10" points="12.451,35.548 33.563,23.864 32,22.999 9.326,35.548 32,48.096 33.563,47.231 	"/>
	<path class="st1" d="M32,48.596c-0.083,0-0.167-0.021-0.242-0.063L9.083,35.985c-0.159-0.088-0.258-0.256-0.258-0.438
		s0.099-0.35,0.258-0.438l22.675-12.548c0.15-0.083,0.334-0.083,0.484,0L54.917,35.11c0.159,0.088,0.258,0.256,0.258,0.438
		s-0.099,0.35-0.258,0.438L32.242,48.533C32.167,48.575,32.084,48.596,32,48.596z M10.358,35.548L32,47.524l21.642-11.977L32,23.571
		L10.358,35.548z"/>
	<polygon class="st11" points="32,48.096 9.326,35.548 9.326,38.397 32,50.945 54.675,38.397 54.675,35.548 	"/>
	<path class="st1" d="M32,51.445c-0.083,0-0.167-0.021-0.242-0.063L9.083,38.834c-0.159-0.088-0.258-0.256-0.258-0.438v-2.849
		c0-0.177,0.094-0.341,0.246-0.431c0.153-0.09,0.341-0.091,0.496-0.007L32,47.524L54.432,35.11c0.155-0.085,0.344-0.084,0.496,0.007
		c0.152,0.09,0.246,0.253,0.246,0.431v2.849c0,0.182-0.099,0.35-0.258,0.438L32.242,51.383C32.167,51.424,32.084,51.445,32,51.445z
		 M9.825,38.102L32,50.374l22.174-12.272v-1.706L32.242,48.533c-0.15,0.083-0.334,0.083-0.484,0L9.825,36.396V38.102z"/>
	<polygon class="st8" points="54.675,25.603 32,38.151 9.326,25.603 32,13.055 	"/>
	<polygon class="st16" points="12.852,25.603 33.763,14.03 32,13.055 9.326,25.603 32,38.151 33.763,37.176 	"/>
	<path class="st1" d="M32,38.651c-0.083,0-0.167-0.021-0.242-0.063L9.083,26.04c-0.159-0.088-0.258-0.256-0.258-0.438
		s0.099-0.35,0.258-0.438l22.675-12.548c0.15-0.083,0.334-0.083,0.484,0l22.674,12.548c0.159,0.088,0.258,0.256,0.258,0.438
		s-0.099,0.35-0.258,0.438L32.242,38.589C32.167,38.63,32.084,38.651,32,38.651z M10.358,25.603L32,37.58l21.642-11.977L32,13.626
		L10.358,25.603z"/>
	<polygon class="st7" points="32,38.151 9.326,25.603 9.326,28.452 32,41 54.675,28.452 54.675,25.603 	"/>
	<path class="st1" d="M32,41.5c-0.083,0-0.167-0.021-0.242-0.063L9.083,28.89c-0.159-0.088-0.258-0.256-0.258-0.438v-2.85
		c0-0.177,0.094-0.341,0.246-0.431c0.153-0.09,0.341-0.092,0.496-0.007L32,37.58l22.432-12.415c0.155-0.086,0.344-0.084,0.496,0.007
		c0.152,0.09,0.246,0.253,0.246,0.431v2.85c0,0.182-0.099,0.35-0.258,0.438L32.242,41.438C32.167,41.479,32.084,41.5,32,41.5z
		 M9.825,28.158L32,40.429l22.174-12.271v-1.707L32.242,38.589c-0.15,0.083-0.334,0.083-0.484,0L9.825,26.451V28.158z"/>
	<polygon class="st6" points="54.675,15.658 32,28.207 9.326,15.658 32,3.11 	"/>
	<polygon class="st10" points="12.659,15.658 33.667,4.032 32,3.11 9.326,15.658 32,28.207 33.667,27.284 	"/>
	<path class="st1" d="M32,28.706c-0.083,0-0.167-0.021-0.242-0.063L9.083,16.096c-0.159-0.088-0.258-0.256-0.258-0.438
		s0.099-0.35,0.258-0.438L31.758,2.673c0.15-0.083,0.334-0.083,0.484,0l22.674,12.548c0.159,0.088,0.258,0.256,0.258,0.438
		s-0.099,0.35-0.258,0.438L32.242,28.644C32.167,28.685,32.084,28.706,32,28.706z M10.358,15.659L32,27.635l21.642-11.977L32,3.682
		L10.358,15.659z"/>
	<polygon class="st11" points="32,28.207 9.326,15.658 9.326,18.508 32,31.056 54.675,18.508 54.675,15.658 	"/>
	<path class="st1" d="M32,31.556c-0.083,0-0.167-0.021-0.242-0.063L9.083,18.945c-0.159-0.088-0.258-0.256-0.258-0.438v-2.85
		c0-0.177,0.094-0.341,0.246-0.431c0.153-0.09,0.341-0.091,0.496-0.007L32,27.635l22.432-12.415
		c0.155-0.085,0.344-0.084,0.496,0.007c0.152,0.09,0.246,0.253,0.246,0.431v2.85c0,0.182-0.099,0.35-0.258,0.438L32.242,31.494
		C32.167,31.535,32.084,31.556,32,31.556z M9.825,18.213L32,30.485l22.174-12.272v-1.707L32.242,28.644
		c-0.15,0.083-0.334,0.083-0.484,0L9.825,16.506V18.213z"/>
	<circle class="st0" cx="31.403" cy="15.48" r="2.728"/>
	<path class="st1" d="M31.404,18.707c-1.78,0-3.228-1.448-3.228-3.228s1.448-3.228,3.228-3.228s3.228,1.448,3.228,3.228
		S33.183,18.707,31.404,18.707z M31.404,13.251c-1.229,0-2.228,1-2.228,2.228s1,2.228,2.228,2.228s2.228-1,2.228-2.228
		S32.632,13.251,31.404,13.251z"/>
	
		<rect x="32.513" y="11.205" transform="matrix(0.6434 -0.7655 0.7655 0.6434 3.3771 30.6597)" class="st1" width="4.175" height="1"/>
	
		<rect x="27.053" y="11.697" transform="matrix(0.492 -0.8706 0.8706 0.492 2.3607 30.7769)" class="st1" width="1" height="3.337"/>
	
		<rect x="35.026" y="15.767" transform="matrix(0.492 -0.8706 0.8706 0.492 2.5896 39.9468)" class="st1" width="1" height="3.975"/>
	
		<rect x="27.219" y="18.245" transform="matrix(0.6534 -0.757 0.757 0.6534 -4.3029 28.0904)" class="st1" width="2.616" height="1"/>
	<circle class="st0" cx="25.017" cy="12.195" r="1.427"/>
	<circle class="st0" cx="36.203" cy="9.684" r="1.427"/>
	<circle class="st0" cx="38.683" cy="19.466" r="1.427"/>
	<circle class="st0" cx="26.941" cy="20.614" r="1.149"/>
	<path class="st1" d="M25.017,14.122c-1.063,0-1.927-0.865-1.927-1.927s0.865-1.927,1.927-1.927s1.927,0.865,1.927,1.927
		S26.079,14.122,25.017,14.122z M25.017,11.267c-0.511,0-0.927,0.416-0.927,0.927s0.416,0.927,0.927,0.927s0.927-0.416,0.927-0.927
		S25.528,11.267,25.017,11.267z"/>
	<path class="st1" d="M36.203,11.611c-1.063,0-1.927-0.864-1.927-1.927s0.865-1.927,1.927-1.927s1.927,0.865,1.927,1.927
		S37.266,11.611,36.203,11.611z M36.203,8.757c-0.511,0-0.927,0.416-0.927,0.927s0.416,0.927,0.927,0.927s0.927-0.416,0.927-0.927
		S36.715,8.757,36.203,8.757z"/>
	<path class="st1" d="M38.683,21.392c-1.063,0-1.927-0.864-1.927-1.927s0.864-1.927,1.927-1.927s1.927,0.865,1.927,1.927
		S39.746,21.392,38.683,21.392z M38.683,18.538c-0.511,0-0.927,0.416-0.927,0.927s0.416,0.927,0.927,0.927s0.927-0.416,0.927-0.927
		S39.195,18.538,38.683,18.538z"/>
	<path class="st1" d="M26.941,22.264c-0.909,0-1.649-0.74-1.649-1.649s0.74-1.649,1.649-1.649s1.649,0.74,1.649,1.649
		S27.85,22.264,26.941,22.264z M26.941,19.966c-0.358,0-0.649,0.291-0.649,0.649s0.291,0.649,0.649,0.649s0.649-0.291,0.649-0.649
		S27.299,19.966,26.941,19.966z"/>
</g>
</svg>
